#!OML:ASF H:\GeneralSubjects\Female5\Project 1\Capture day 1\Session 1\Female5.ASF
:FULLY-SPECIFIED
:DEGREES
65
root 22.2531 15.2395 -3.05907 -17.2998 85.4542 -17.4098
lowerback 11.1305 1.50734 -2.15806
upperback -9.75425 2.09445 1.36769
thorax -17.5629 1.43565 2.21072
lowerneck -12.9507 -2.5956 2.17158
upperneck 42.6473 -0.360409 -5.08663
head 18.0462 0.299076 -2.59993
rclavicle 1.54058e-015 2.28602e-015
rhumerus -62.6922 15.2343 -81.7013
rradius 64.7661
rwrist -10.7819
rhand -27.0896 -16.9183
rfingers 7.12502
rthumb -0.506668 -46.8974
lclavicle 1.54058e-015 2.28602e-015
lhumerus -71.1928 -19.9754 85.7582
lradius 78.2349
lwrist -21.2722
lhand -31.2817 29.0872
lfingers 7.12502
lthumb -4.55512 59.0182
rfemur -20.1904 -7.65331 28.325
rtibia 67.516
rfoot -14.104 -18.0542
rtoes -17.3069
lfemur -18.1827 -10.4218 -29.6235
ltibia 33.8028
lfoot -17.6305 2.19453
ltoes -53.9522
66
root 22.7804 15.2377 -2.99696 -11.1709 84.9861 -11.2218
lowerback 11.6558 1.50222 -2.25051
upperback -9.61481 1.9896 1.03429
thorax -17.7149 1.3596 1.89914
lowerneck -13.264 -2.51017 2.41651
upperneck 42.3716 -0.576379 -4.70145
head 17.9492 0.268749 -2.50457
rclavicle 2.18663e-015 1.0958e-014
rhumerus -63.7195 14.294 -81.8777
rradius 62.4916
rwrist -11.9591
rhand -26.1755 -17.6135
rfingers 7.12502
rthumb 0.376273 -47.5929
lclavicle 2.18663e-015 1.0958e-014
lhumerus -68.182 -20.3447 84.8124
lradius 78.7569
lwrist -24.3696
lhand -31.8487 27.6014
lfingers 7.12502
lthumb -5.10262 57.52
rfemur -24.8405 -5.32017 28.4284
rtibia 67.7371
rfoot -14.9006 -16.8726
rtoes -19.6431
lfemur -15.4933 -7.97466 -30.0167
ltibia 33.006
lfoot -17.4767 1.21492
ltoes -54.508
67
root 23.3312 15.2339 -2.92931 -5.34423 84.4058 -4.97308
lowerback 11.9476 1.51176 -2.37777
upperback -9.32475 1.89263 0.683802
thorax -17.5217 1.28386 1.59302
lowerneck -13.2657 -2.37568 3.18078
upperneck 42.167 -0.409173 -5.29133
head 17.8247 0.360125 -2.88709
rclavicle -1.22439e-014 7.00716e-015
rhumerus -64.6504 13.6552 -82.3822
rradius 60.0919
rwrist -13.2692
rhand -25.0243 -17.5772
rfingers 7.12502
rthumb 1.48811 -47.5517
lclavicle -1.22439e-014 7.00716e-015
lhumerus -64.9312 -20.539 84.0564
lradius 79.9486
lwrist -23.7375
lhand -30.7057 27.8326
lfingers 7.12502
lthumb -3.99892 57.7748
rfemur -28.2638 -2.94843 28.1761
rtibia 66.0569
rfoot -16.7162 -15.9967
rtoes -17.9345
lfemur -12.1515 -5.88289 -30.559
ltibia 32.1721
lfoot -17.7997 0.182519
ltoes -55.4197
68
root 23.9069 15.2418 -2.8565 0.20372 84.0574 1.00458
lowerback 11.7485 1.41225 -2.57674
upperback -9.10613 1.65619 0.336211
thorax -17.0929 1.15897 1.37828
lowerneck -12.6258 -2.17633 3.42834
upperneck 41.8712 -0.179853 -5.26585
head 17.4954 0.490335 -2.8546
rclavicle -9.7653e-015 4.96962e-015
rhumerus -65.7456 13.4303 -83.1479
rradius 57.5525
rwrist -14.246
rhand -23.5054 -17.5049
rfingers 7.12502
rthumb 2.955 -47.4642
lclavicle -9.7653e-015 4.96962e-015
lhumerus -62.0009 -20.6708 83.612
lradius 80.8991
lwrist -22.6203
lhand -31.2231 28.8393
lfingers 7.12502
lthumb -4.4986 58.7715
rfemur -30.5954 -1.00167 27.6119
rtibia 62.416
rfoot -18.283 -15.2916
rtoes -16.9862
lfemur -8.75667 -4.74434 -31.3566
ltibia 31.5592
lfoot -18.4978 -0.58446
ltoes -56.591
69
root 24.4988 15.2786 -2.7823 6.6651 83.8731 7.50644
lowerback 10.8558 1.24883 -2.87767
upperback -8.97123 1.35141 -0.014366
thorax -16.3205 1.01866 1.24703
lowerneck -12.0065 -1.98615 3.41057
upperneck 41.6655 -0.0364924 -4.83846
head 17.2276 0.604279 -2.6093
rclavicle -5.96354e-015 -1.38155e-014
rhumerus -66.8682 13.4311 -83.919
rradius 54.9987
rwrist -14.1192
rhand -21.9651 -16.9199
rfingers 7.12502
rthumb 4.44246 -46.8534
lclavicle -5.96354e-015 -1.38155e-014
lhumerus -59.1496 -20.6839 83.3099
lradius 82.022
lwrist -20.6521
lhand -31.891 30.4401
lfingers 7.12502
lthumb -5.14351 60.3577
rfemur -32.3047 0.654024 26.7777
rtibia 57.076
rfoot -19.5822 -15.1034
rtoes -15.3171
lfemur -5.64607 -4.49653 -32.3896
ltibia 30.6307
lfoot -19.1968 -0.659146
ltoes -57.5225
70
root 25.0947 15.3421 -2.70503 13.1764 83.6297 13.5823
lowerback 9.54346 1.08278 -3.26131
upperback -8.93888 1.07698 -0.292478
thorax -15.4185 0.909717 1.23842
lowerneck -11.4953 -2.01573 4.25416
upperneck 41.3831 -0.042085 -5.57711
head 16.9225 0.62669 -3.08336
rclavicle -1.31943e-014 1.87852e-014
rhumerus -67.9674 13.4447 -84.4724
rradius 52.7123
rwrist -12.4466
rhand -20.7217 -16.0648
rfingers 7.12502
rthumb 5.64306 -45.9697
lclavicle -1.31943e-014 1.87852e-014
lhumerus -56.5309 -20.3322 83.0959
lradius 83.4278
lwrist -19.0919
lhand -32.4886 31.7394
lfingers 7.12502
lthumb -5.72046 61.6422
rfemur -33.6264 2.37294 25.7761
rtibia 50.0898
rfoot -20.4731 -16.0586
rtoes -12.2451
lfemur -3.0094 -4.76012 -33.4236
ltibia 29.4283
lfoot -19.6466 -0.0259502
ltoes -58.1312
71
root 25.6972 15.4141 -2.62235 16.933 83.5261 16.9101
lowerback 8.33071 0.848324 -3.24551
upperback -9.00292 0.792458 -0.520415
thorax -14.6951 0.758723 1.0548
lowerneck -10.851 -2.12773 5.10734
upperneck 41.0318 -0.12945 -6.41679
head 16.5402 0.600585 -3.60633
rclavicle -9.41742e-015 2.48481e-014
rhumerus -69.3297 13.3722 -85.0289
rradius 50.7671
rwrist -10.0031
rhand -20.1642 -15.1099
rfingers 7.12502
rthumb 6.18133 -44.9997
lclavicle -9.41742e-015 2.48481e-014
lhumerus -54.6874 -19.7324 82.9928
lradius 85.0962
lwrist -18.4923
lhand -33.2897 32.1056
lfingers 7.12502
lthumb -6.4939 61.986
rfemur -33.7354 4.05522 24.9471
rtibia 41.2419
rfoot -21.7692 -17.9067
rtoes -4.0645
lfemur -0.334308 -5.34863 -34.217
ltibia 28.1397
lfoot -19.8612 1.08422
ltoes -58.8863
72
root 26.3145 15.4858 -2.52726 18.5345 83.7967 18.4402
lowerback 7.31914 0.538112 -2.99317
upperback -8.94609 0.440479 -0.635901
thorax -13.9574 0.553888 0.870218
lowerneck -10.6656 -2.12737 5.47544
upperneck 40.893 -0.0370458 -6.93237
head 16.419 0.620082 -3.88225
rclavicle 1.61264e-014 -2.68359e-015
rhumerus -70.7683 13.1735 -85.3548
rradius 49.2007
rwrist -7.90303
rhand -20.3267 -14.2146
rfingers 7.12502
rthumb 6.0244 -44.1089
lclavicle 1.61264e-014 -2.68359e-015
lhumerus -53.197 -19.0364 83.1335
lradius 86.6436
lwrist -18.3243
lhand -34.3016 32.0951
lfingers 7.12502
lthumb -7.47065 61.9432
rfemur -31.7933 5.96771 24.2738
rtibia 30.2675
rfoot -25.8145 -18.6994
rtoes 20.654
lfemur 2.69597 -5.83232 -34.7055
ltibia 26.9923
lfoot -19.8003 2.10555
ltoes -59.793
73
root 26.8992 15.5635 -2.42575 14.547 84.104 13.9751
lowerback 6.43409 0.307488 -2.24454
upperback -9.07491 0.280517 -0.542252
thorax -13.5327 0.411865 0.589674
lowerneck -10.9413 -2.02518 5.38578
upperneck 40.9356 0.170011 -7.05339
head 16.5342 0.669962 -3.89891
rclavicle -1.1778e-014 -6.55989e-015
rhumerus -72.2329 12.6574 -85.1758
rradius 48.1677
rwrist -6.63488
rhand -20.5014 -14.1091
rfingers 7.12502
rthumb 5.85574 -44.0082
lclavicle -1.1778e-014 -6.55989e-015
lhumerus -51.9719 -18.4266 83.5536
lradius 88.1438
lwrist -18.0277
lhand -35.4815 32.0339
lfingers 7.12502
lthumb -8.60946 61.8383
rfemur -29.5731 10.0484 23.5736
rtibia 18.5081
rfoot -28.7611 -23.9885
rtoes 28.991
lfemur 4.64079 -5.91203 -34.1144
ltibia 26.588
lfoot -19.3145 3.14334
ltoes -60.1682
